# xmcd CD database file
#
# Track frame offsets:
#	150
#	21712
#	41475
#	60905
#	76822
#	91797
#	111022
#	125547
#	140022
#	154837
#	170652
#	186972
#	202915
#	216575
#
# Disc length: 3101 seconds
#
# Revision: 2
# Processed by: cddbd v1.5.2PL0 Copyright (c) Steve Scherf et al.
# Submitted via: CDex 1.51
#
DISCID=c30c1b0e
DTITLE=Angy Burri and The Apaches - Tatanka
DYEAR=1995
DGENRE=Country
TTITLE0=Geromino
TTITLE1=My Name Is Big Andy
TTITLE2=Comanche
TTITLE3=Tatanka
TTITLE4=Satisfy You
TTITLE5=Born To Be Wild
TTITLE6=Bad Case Of Lovin' You
TTITLE7=Lonesome Me
TTITLE8=Cowboys Like Rock'N'Roll
TTITLE9=Springtime In Alaska
TTITLE10=Farmer's Song
TTITLE11=Burnin' Love
TTITLE12=Somethin' Else
TTITLE13=Luckenbach Texas
EXTD=YEAR: 1995
EXTT0=
EXTT1=
EXTT2=
EXTT3=
EXTT4=
EXTT5=
EXTT6=
EXTT7=
EXTT8=
EXTT9=
EXTT10=
EXTT11=
EXTT12=
EXTT13=
PLAYORDER=
